<svg width="2340" height="1603" viewBox="0 0 2340 1603" fill="none" xmlns="http://www.w3.org/2000/svg">
<path d="M1542.82 685.613C1538 685.631 1533.21 686.279 1528.56 687.543L1434.97 525.5L1528.57 363.457C1539.16 366.284 1550.34 365.91 1560.71 362.381C1571.08 358.852 1580.18 352.328 1586.84 343.633C1593.5 334.938 1597.44 324.462 1598.15 313.531C1598.86 302.599 1596.32 291.701 1590.83 282.216C1585.35 272.731 1577.18 265.084 1567.36 260.241C1557.53 255.399 1546.49 253.578 1535.63 255.01C1524.77 256.442 1514.57 261.062 1506.34 268.285C1498.1 275.509 1492.19 285.012 1489.36 295.594H1302.27L1208.67 133.576C1216.42 125.824 1221.69 115.948 1223.83 105.197C1225.97 94.4466 1224.87 83.3034 1220.68 73.1767C1216.48 63.0501 1209.38 54.3948 1200.26 48.3053C1191.15 42.2158 1180.43 38.9655 1169.47 38.9655C1158.51 38.9655 1147.79 42.2158 1138.68 48.3053C1129.57 54.3948 1122.46 63.0501 1118.27 73.1767C1114.07 83.3034 1112.97 94.4466 1115.11 105.197C1117.25 115.948 1122.53 125.824 1130.28 133.576L1036.73 295.594H849.643C846.827 284.956 840.916 275.394 832.66 268.119C824.404 260.845 814.174 256.185 803.266 254.73C792.359 253.276 781.265 255.092 771.391 259.95C761.518 264.807 753.308 272.486 747.803 282.015C742.299 291.543 739.746 302.491 740.47 313.471C741.194 324.451 745.162 334.969 751.87 343.692C758.578 352.415 767.725 358.949 778.151 362.468C788.578 365.987 799.814 366.331 810.436 363.457L904.032 525.5L810.427 687.543C799.844 684.716 788.659 685.091 778.288 688.619C767.917 692.148 758.825 698.672 752.161 707.367C745.497 716.062 741.561 726.538 740.85 737.469C740.138 748.401 742.684 759.299 748.165 768.784C753.647 778.269 761.817 785.916 771.643 790.759C781.47 795.601 792.511 797.422 803.372 795.99C814.233 794.558 824.426 789.938 832.662 782.715C840.898 775.491 846.807 765.988 849.643 755.406H1036.73L1130.33 917.425C1122.58 925.176 1117.31 935.052 1115.17 945.803C1113.03 956.553 1114.13 967.697 1118.32 977.823C1122.52 987.95 1129.62 996.605 1138.74 1002.69C1147.85 1008.78 1158.57 1012.03 1169.53 1012.03C1180.49 1012.03 1191.21 1008.78 1200.32 1002.69C1209.43 996.605 1216.54 987.95 1220.73 977.823C1224.93 967.697 1226.03 956.553 1223.89 945.803C1221.75 935.052 1216.47 925.176 1208.72 917.425L1302.27 755.406H1489.35C1492.04 765.39 1497.46 774.423 1505.01 781.483C1512.57 788.543 1521.94 793.349 1532.09 795.357C1542.23 797.365 1552.73 796.495 1562.4 792.845C1572.08 789.195 1580.53 782.911 1586.82 774.704C1593.11 766.497 1596.98 756.694 1597.98 746.404C1598.99 736.115 1597.09 725.749 1592.52 716.479C1587.94 707.209 1580.86 699.406 1572.07 693.951C1563.29 688.496 1553.16 685.608 1542.82 685.613V685.613ZM1542.82 283.277C1548.09 283.274 1553.25 284.833 1557.63 287.756C1562.02 290.68 1565.44 294.837 1567.47 299.704C1569.5 304.57 1570.04 309.929 1569.02 315.102C1568.01 320.275 1565.48 325.032 1561.76 328.772C1558.05 332.511 1553.31 335.067 1548.14 336.115C1542.98 337.164 1537.61 336.659 1532.73 334.663C1527.85 332.668 1523.68 329.272 1520.72 324.904C1517.77 320.535 1516.18 315.391 1516.15 310.119V309.963V309.807C1516.2 302.761 1519.03 296.02 1524.02 291.051C1529.02 286.082 1535.77 283.288 1542.82 283.277ZM1169.5 67.7403C1174.78 67.7403 1179.94 69.3053 1184.33 72.2376C1188.71 75.1698 1192.13 79.3375 1194.15 84.2137C1196.17 89.0898 1196.7 94.4554 1195.67 99.6319C1194.64 104.808 1192.1 109.563 1188.37 113.295C1184.64 117.027 1179.88 119.569 1174.71 120.599C1169.53 121.628 1164.16 121.1 1159.29 119.08C1154.41 117.06 1150.24 113.64 1147.31 109.252C1144.38 104.863 1142.81 99.7037 1142.81 94.4258C1142.82 87.351 1145.64 80.5685 1150.64 75.5659C1155.64 70.5633 1162.43 67.749 1169.5 67.7403V67.7403ZM769.496 309.963C769.475 302.885 772.267 296.09 777.257 291.071C782.247 286.051 789.026 283.22 796.104 283.199C803.181 283.179 809.977 285.97 814.996 290.96C820.015 295.95 822.846 302.729 822.867 309.807V309.963V310.119C822.846 317.196 820.015 323.976 814.996 328.966C809.977 333.955 803.181 336.747 796.104 336.726C789.026 336.706 782.247 333.874 777.257 328.855C772.267 323.836 769.475 317.04 769.496 309.963V309.963ZM796.182 767.723C790.91 767.726 785.755 766.167 781.368 763.244C776.981 760.32 773.558 756.163 771.531 751.296C769.504 746.43 768.964 741.071 769.979 735.898C770.995 730.725 773.52 725.968 777.235 722.229C780.951 718.489 785.691 715.933 790.858 714.885C796.025 713.836 801.386 714.341 806.266 716.337C811.146 718.332 815.325 721.728 818.277 726.096C821.228 730.465 822.82 735.609 822.851 740.881V741.037V741.193C822.803 748.239 819.974 754.98 814.978 759.949C809.983 764.918 803.227 767.712 796.182 767.723V767.723ZM1169.5 983.26C1164.22 983.26 1159.06 981.695 1154.67 978.762C1150.29 975.83 1146.87 971.663 1144.85 966.786C1142.83 961.91 1142.3 956.545 1143.33 951.368C1144.36 946.192 1146.9 941.437 1150.63 937.705C1154.36 933.973 1159.12 931.431 1164.29 930.401C1169.47 929.372 1174.84 929.9 1179.71 931.92C1184.59 933.94 1188.76 937.36 1191.69 941.749C1194.62 946.137 1196.19 951.296 1196.19 956.574C1196.18 963.649 1193.36 970.432 1188.36 975.434C1183.36 980.437 1176.57 983.251 1169.5 983.26V983.26ZM1293.98 726.668C1291.45 726.667 1288.98 727.331 1286.79 728.592C1284.61 729.853 1282.79 731.668 1281.53 733.853L1183.82 903.088C1174.47 900.507 1164.59 900.507 1155.24 903.088L1057.53 733.853C1056.26 731.659 1054.44 729.839 1052.24 728.578C1050.05 727.316 1047.55 726.657 1045.02 726.668H849.643C847.134 717.294 842.207 708.743 835.356 701.871L933.066 532.726C934.326 530.541 934.99 528.063 934.99 525.541C934.99 523.019 934.326 520.541 933.066 518.357L835.315 349.129C842.166 342.257 847.092 333.706 849.602 324.332H1045.02C1047.55 324.333 1050.02 323.669 1052.21 322.408C1054.39 321.147 1056.21 319.332 1057.47 317.147L1155.18 147.912C1164.53 150.493 1174.41 150.493 1183.76 147.912L1281.47 317.147C1282.73 319.332 1284.55 321.147 1286.73 322.408C1288.92 323.669 1291.4 324.333 1293.92 324.332H1489.29C1491.8 333.706 1496.73 342.257 1503.58 349.129L1405.87 518.274C1404.61 520.459 1403.94 522.937 1403.94 525.459C1403.94 527.981 1404.61 530.459 1405.87 532.644L1503.58 701.789C1496.73 708.661 1491.8 717.212 1489.29 726.586L1293.98 726.668ZM1542.82 767.723C1535.77 767.712 1529.02 764.918 1524.02 759.949C1519.03 754.98 1516.2 748.239 1516.15 741.193V741.037V740.881C1516.18 735.612 1517.77 730.47 1520.73 726.104C1523.68 721.739 1527.85 718.345 1532.73 716.351C1537.61 714.357 1542.97 713.853 1548.13 714.901C1553.3 715.95 1558.04 718.504 1561.75 722.242C1565.46 725.981 1567.99 730.735 1569 735.906C1570.02 741.077 1569.48 746.433 1567.45 751.298C1565.43 756.162 1562.01 760.319 1557.62 763.242C1553.24 766.165 1548.09 767.724 1542.82 767.723Z" fill="white"/>
<path d="M1233.44 535.864C1216.39 509.259 1187.34 493.373 1155.75 493.373C1124.15 493.373 1095.1 509.259 1078.05 535.864L1036.95 599.972C1030.14 610.61 1026.99 622.896 1027.86 635.5C1028.72 648.108 1033.52 659.847 1041.73 669.456C1049.94 679.062 1060.8 685.625 1073.12 688.442C1085.44 691.255 1098.07 690.055 1109.64 684.969L1110.39 684.634C1139.51 672.081 1172.8 672.194 1201.85 684.969C1209.34 688.262 1217.28 689.928 1225.29 689.928C1229.64 689.928 1234.02 689.433 1238.36 688.445C1250.68 685.631 1261.54 679.067 1269.76 669.462C1277.97 659.856 1282.77 648.113 1283.63 635.506C1284.5 622.896 1281.36 610.61 1274.54 599.969L1233.44 535.864ZM1252.87 655.021C1242.42 667.241 1225.51 671.104 1210.79 664.633C1193.3 656.938 1174.52 653.093 1155.74 653.093C1136.97 653.093 1118.2 656.935 1100.71 664.621L1100.22 664.841C1085.61 671.017 1068.95 667.105 1058.61 655.021C1048.17 642.799 1046.98 625.496 1055.66 611.96L1096.75 547.852C1109.7 527.652 1131.75 515.591 1155.75 515.591C1179.74 515.591 1201.79 527.652 1214.74 547.852L1255.83 611.958C1264.51 625.499 1263.32 642.805 1252.87 655.021Z" fill="white" stroke="white" stroke-width="4"/>
<path d="M1048.02 535.78C1060.25 531.084 1069.54 521.233 1074.18 508.038C1078.59 495.483 1078.23 481.309 1073.15 468.124C1068.08 454.947 1058.84 444.19 1047.15 437.832C1034.86 431.155 1021.37 430.068 1009.16 434.773C984.609 444.213 973.341 474.557 984.048 502.429C992.601 524.613 1012.55 538.616 1032.72 538.616C1037.87 538.616 1043.03 537.703 1048.02 535.78ZM1004.78 494.448C998.471 478.024 1004.01 460.554 1017.14 455.505C1019.52 454.591 1022.02 454.137 1024.58 454.137C1028.53 454.137 1032.61 455.216 1036.54 457.353C1043.6 461.19 1049.24 467.852 1052.42 476.107C1055.6 484.368 1055.88 493.089 1053.22 500.668C1050.77 507.613 1046.1 512.72 1040.05 515.042L1040.04 515.048C1026.93 520.102 1011.11 510.858 1004.78 494.448Z" fill="white" stroke="white" stroke-width="4"/>
<path d="M1127.76 485.554C1158.46 485.554 1183.43 457.101 1183.43 422.128C1183.43 387.146 1158.46 358.688 1127.76 358.688C1097.07 358.688 1072.1 387.146 1072.1 422.128C1072.1 457.101 1097.07 485.554 1127.76 485.554ZM1127.76 380.903C1146.21 380.903 1161.22 399.397 1161.22 422.128C1161.22 444.85 1146.21 463.338 1127.76 463.338C1109.32 463.338 1094.31 444.85 1094.31 422.128C1094.31 399.397 1109.32 380.903 1127.76 380.903Z" fill="white" stroke="white" stroke-width="4"/>
<path d="M1223.9 501.136H1223.91C1228.63 502.704 1233.45 503.453 1238.24 503.453C1260.63 503.453 1282.45 487.159 1290.77 462.118C1295.57 447.704 1295.25 432.462 1289.88 419.205C1284.27 405.328 1273.86 395.254 1260.58 390.836C1247.29 386.423 1232.92 388.262 1220.11 396.017C1207.88 403.428 1198.51 415.446 1193.72 429.86C1183.61 460.267 1197.15 492.242 1223.9 501.136V501.136ZM1214.8 436.866C1217.93 427.454 1223.9 419.699 1231.62 415.021C1238.77 410.692 1246.57 409.59 1253.57 411.918C1260.57 414.248 1266.16 419.794 1269.29 427.538C1272.68 435.906 1272.82 445.697 1269.69 455.109C1263.45 473.892 1246.05 485.083 1230.91 480.054C1215.79 475.023 1208.56 455.65 1214.8 436.866Z" fill="white" stroke="white" stroke-width="4"/>
<path d="M1341.14 493.734L1341.13 493.725C1319.96 478.088 1288.3 484.866 1270.55 508.842C1252.82 532.831 1255.59 565.08 1276.73 580.729C1284.44 586.44 1293.55 589.169 1302.87 589.169C1319.12 589.169 1336.02 580.876 1347.32 565.626C1365.05 541.638 1362.28 509.389 1341.14 493.734V493.734ZM1329.46 552.409C1318.98 566.557 1301.26 571.25 1289.95 562.874C1278.65 554.508 1277.96 536.193 1288.41 522.054C1295.36 512.668 1305.51 507.446 1314.87 507.446C1319.6 507.446 1324.13 508.782 1327.93 511.595C1339.22 519.969 1339.91 538.278 1329.46 552.409V552.409Z" fill="white" stroke="white" stroke-width="4"/>
<path d="M162.03 1271.16C182.803 1271.16 201.637 1276.01 218.533 1285.7C235.705 1295.12 249.138 1308.55 258.832 1326C268.526 1343.17 273.373 1363.25 273.373 1386.24C273.373 1409.23 268.526 1429.45 258.832 1446.9C249.138 1464.07 235.705 1477.5 218.533 1487.2C201.637 1496.62 182.803 1501.32 162.03 1501.32C133.501 1501.32 111.067 1492.32 94.7251 1474.32V1578.6H29.9132V1274.48H91.8169V1300.24C107.881 1280.85 131.286 1271.16 162.03 1271.16ZM150.812 1448.14C167.431 1448.14 181.003 1442.61 191.528 1431.53C202.33 1420.17 207.731 1405.08 207.731 1386.24C207.731 1367.41 202.33 1352.45 191.528 1341.37C181.003 1330.02 167.431 1324.34 150.812 1324.34C134.194 1324.34 120.484 1330.02 109.682 1341.37C99.1567 1352.45 93.8942 1367.41 93.8942 1386.24C93.8942 1405.08 99.1567 1420.17 109.682 1431.53C120.484 1442.61 134.194 1448.14 150.812 1448.14ZM403.263 1271.16C437.885 1271.16 464.475 1279.47 483.032 1296.09C501.589 1312.43 510.868 1337.22 510.868 1370.45V1498H450.21V1470.16C438.024 1490.94 415.312 1501.32 382.075 1501.32C364.902 1501.32 349.946 1498.42 337.205 1492.6C324.741 1486.78 315.186 1478.75 308.538 1468.5C301.891 1458.25 298.567 1446.62 298.567 1433.6C298.567 1412.83 306.322 1396.49 321.833 1384.58C337.621 1372.67 361.856 1366.71 394.539 1366.71H446.056C446.056 1352.59 441.763 1341.79 433.177 1334.31C424.59 1326.55 411.711 1322.68 394.539 1322.68C382.629 1322.68 370.857 1324.61 359.225 1328.49C347.869 1332.09 338.174 1337.08 330.142 1343.45L306.876 1298.16C319.063 1289.58 333.604 1282.93 350.5 1278.22C367.672 1273.51 385.26 1271.16 403.263 1271.16ZM398.278 1457.7C409.357 1457.7 419.189 1455.21 427.776 1450.22C436.362 1444.96 442.455 1437.34 446.056 1427.37V1404.52H401.602C375.012 1404.52 361.717 1413.25 361.717 1430.7C361.717 1439 364.902 1445.65 371.273 1450.64C377.92 1455.35 386.922 1457.7 398.278 1457.7ZM924.427 1274.48L843.412 1498H781.093L730.822 1359.24L678.889 1498H616.57L535.971 1274.48H597.044L649.807 1425.71L704.648 1274.48H759.489L812.668 1425.71L867.093 1274.48H924.427ZM1072.22 1274.48H1137.03V1498H1072.22V1274.48ZM1104.62 1243.32C1092.71 1243.32 1083.02 1239.86 1075.54 1232.94C1068.06 1226.01 1064.32 1217.43 1064.32 1207.18C1064.32 1196.93 1068.06 1188.34 1075.54 1181.42C1083.02 1174.49 1092.71 1171.03 1104.62 1171.03C1116.53 1171.03 1126.23 1174.36 1133.71 1181C1141.18 1187.65 1144.92 1195.96 1144.92 1205.93C1144.92 1216.73 1141.18 1225.73 1133.71 1232.94C1126.23 1239.86 1116.53 1243.32 1104.62 1243.32ZM1333.04 1271.16C1360.73 1271.16 1383.03 1279.47 1399.93 1296.09C1417.1 1312.7 1425.68 1337.36 1425.68 1370.04V1498H1360.87V1380.01C1360.87 1362.28 1356.99 1349.13 1349.24 1340.54C1341.48 1331.68 1330.27 1327.25 1315.59 1327.25C1299.25 1327.25 1286.23 1332.37 1276.53 1342.62C1266.84 1352.59 1261.99 1367.55 1261.99 1387.49V1498H1197.18V1274.48H1259.08V1300.66C1267.67 1291.24 1278.33 1284.04 1291.07 1279.05C1303.82 1273.79 1317.8 1271.16 1333.04 1271.16ZM1602.09 1189.73H1666.9V1498H1602.09V1189.73ZM1817.21 1271.16C1851.83 1271.16 1878.42 1279.47 1896.98 1296.09C1915.54 1312.43 1924.81 1337.22 1924.81 1370.45V1498H1864.16V1470.16C1851.97 1490.94 1829.26 1501.32 1796.02 1501.32C1778.85 1501.32 1763.89 1498.42 1751.15 1492.6C1738.69 1486.78 1729.13 1478.75 1722.49 1468.5C1715.84 1458.25 1712.51 1446.62 1712.51 1433.6C1712.51 1412.83 1720.27 1396.49 1735.78 1384.58C1751.57 1372.67 1775.8 1366.71 1808.49 1366.71H1860C1860 1352.59 1855.71 1341.79 1847.12 1334.31C1838.54 1326.55 1825.66 1322.68 1808.49 1322.68C1796.58 1322.68 1784.8 1324.61 1773.17 1328.49C1761.82 1332.09 1752.12 1337.08 1744.09 1343.45L1720.82 1298.16C1733.01 1289.58 1747.55 1282.93 1764.45 1278.22C1781.62 1273.51 1799.21 1271.16 1817.21 1271.16ZM1812.22 1457.7C1823.3 1457.7 1833.14 1455.21 1841.72 1450.22C1850.31 1444.96 1856.4 1437.34 1860 1427.37V1404.52H1815.55C1788.96 1404.52 1775.66 1413.25 1775.66 1430.7C1775.66 1439 1778.85 1445.65 1785.22 1450.64C1791.87 1455.35 1800.87 1457.7 1812.22 1457.7ZM2338.37 1274.48L2257.36 1498H2195.04L2144.77 1359.24L2092.84 1498H2030.52L1949.92 1274.48H2010.99L2063.75 1425.71L2118.59 1274.48H2173.44L2226.61 1425.71L2281.04 1274.48H2338.37Z" fill="white"/>
</svg>
